<svg width="455" height="123" viewBox="0 0 455 123" fill="none" xmlns="http://www.w3.org/2000/svg">
<path d="M158.12 36.24C163.448 36.24 168.104 37.32 172.088 39.48C176.12 41.592 179.216 44.568 181.376 48.408C183.536 52.248 184.616 56.64 184.616 61.584C184.616 66.48 183.512 70.848 181.304 74.688C179.144 78.528 176.048 81.552 172.016 83.76C168.032 85.92 163.4 87 158.12 87H138.032V36.24H158.12ZM157.04 74.544C161.168 74.544 164.408 73.416 166.76 71.16C169.112 68.904 170.288 65.712 170.288 61.584C170.288 57.408 169.112 54.192 166.76 51.936C164.408 49.632 161.168 48.48 157.04 48.48H152.144V74.544H157.04ZM221.001 36.24V69.864C221.001 75.576 219.441 79.944 216.321 82.968C213.249 85.992 209.001 87.504 203.577 87.504C197.817 87.504 193.209 85.896 189.753 82.68C186.345 79.464 184.641 74.832 184.641 68.784H198.609C198.657 72.768 200.121 74.76 203.001 74.76C205.593 74.76 206.889 73.128 206.889 69.864V36.24H221.001ZM234.277 61.512C234.277 56.52 235.309 52.08 237.373 48.192C239.485 44.256 242.461 41.208 246.301 39.048C250.141 36.84 254.557 35.736 259.549 35.736C265.885 35.736 271.213 37.44 275.533 40.848C279.853 44.208 282.637 48.792 283.885 54.6H268.693C267.781 52.68 266.509 51.216 264.877 50.208C263.293 49.2 261.445 48.696 259.333 48.696C256.069 48.696 253.453 49.872 251.485 52.224C249.565 54.528 248.605 57.624 248.605 61.512C248.605 65.448 249.565 68.592 251.485 70.944C253.453 73.248 256.069 74.4 259.333 74.4C261.445 74.4 263.293 73.896 264.877 72.888C266.509 71.88 267.781 70.416 268.693 68.496H283.885C282.637 74.304 279.853 78.912 275.533 82.32C271.213 85.68 265.885 87.36 259.549 87.36C254.557 87.36 250.141 86.28 246.301 84.12C242.461 81.912 239.485 78.864 237.373 74.976C235.309 71.04 234.277 66.552 234.277 61.512ZM312.672 87L302.592 68.28H301.08V87H286.968V36.24H309.216C313.296 36.24 316.752 36.96 319.584 38.4C322.416 39.792 324.552 41.736 325.992 44.232C327.432 46.68 328.152 49.44 328.152 52.512C328.152 55.968 327.192 59.016 325.272 61.656C323.4 64.248 320.64 66.096 316.992 67.2L328.44 87H312.672ZM301.08 58.632H308.064C309.984 58.632 311.424 58.176 312.384 57.264C313.344 56.352 313.824 55.032 313.824 53.304C313.824 51.672 313.32 50.4 312.312 49.488C311.352 48.528 309.936 48.048 308.064 48.048H301.08V58.632ZM344.794 36.24V65.688C344.794 68.424 345.418 70.536 346.666 72.024C347.962 73.512 349.906 74.256 352.498 74.256C355.09 74.256 357.034 73.512 358.33 72.024C359.674 70.488 360.346 68.376 360.346 65.688V36.24H374.458V65.688C374.458 70.344 373.474 74.328 371.506 77.64C369.538 80.904 366.85 83.376 363.442 85.056C360.082 86.688 356.338 87.504 352.21 87.504C348.082 87.504 344.386 86.688 341.122 85.056C337.906 83.376 335.362 80.904 333.49 77.64C331.666 74.376 330.754 70.392 330.754 65.688V36.24H344.794ZM394.035 75.552H415.131V87H378.195V76.272L399.075 47.616H378.195V36.24H415.131V46.968L394.035 75.552ZM433.296 47.544V55.824H449.496V66.552H433.296V75.696H451.656V87H419.184V36.24H451.656V47.544H433.296Z" fill="black"/>
<path d="M82.1565 61.2654C82.1565 72.8033 72.8032 82.1566 61.2653 82.1566C49.7274 82.1566 40.3741 72.8033 40.3741 61.2654C40.3741 49.7275 49.7274 40.3741 61.2653 40.3741C72.8032 40.3741 82.1565 49.7275 82.1565 61.2654ZM47.686 61.2654C47.686 68.765 53.7657 74.8447 61.2653 74.8447C68.7649 74.8447 74.8446 68.765 74.8446 61.2654C74.8446 53.7657 68.7649 47.6861 61.2653 47.6861C53.7657 47.6861 47.686 53.7657 47.686 61.2654Z" fill="black"/>
<path d="M123 61.5C123 95.4655 95.4655 123 61.5 123C27.5345 123 0 95.4655 0 61.5C0 27.5345 27.5345 0 61.5 0C95.4655 0 123 27.5345 123 61.5ZM9.225 61.5C9.225 90.3707 32.6293 113.775 61.5 113.775C90.3707 113.775 113.775 90.3707 113.775 61.5C113.775 32.6293 90.3707 9.225 61.5 9.225C32.6293 9.225 9.225 32.6293 9.225 61.5Z" fill="black"/>
<path d="M43.8261 100.574C37.8448 97.7441 32.6085 93.5177 28.5454 88.2406C24.4822 82.9636 21.7076 76.7857 20.4483 70.212L24.5535 69.4023C25.6869 75.3186 28.184 80.8787 31.8408 85.6281C35.4977 90.3774 40.2103 94.1812 45.5935 96.7283L43.8261 100.574Z" fill="black"/>
<path d="M47.9847 89.4266C43.4108 87.4168 39.4065 84.4154 36.2994 80.6679C33.1923 76.9205 31.0706 72.5333 30.1076 67.865L34.8164 67.0025C35.635 70.9705 37.4385 74.6996 40.0795 77.885C42.7206 81.0704 46.1241 83.6215 50.012 85.3298L47.9847 89.4266Z" fill="black"/>
<path d="M79.1739 22.6559C85.1552 25.486 90.3915 29.7124 94.4546 34.9895C98.5178 40.2665 101.292 46.4444 102.552 53.0181L98.4465 53.8278C97.3131 47.9115 94.816 42.3514 91.1592 37.602C87.5023 32.8527 82.7897 29.0489 77.4065 26.5018L79.1739 22.6559Z" fill="black"/>
<path d="M75.0153 33.8035C79.5893 35.8133 83.5935 38.8147 86.7006 42.5622C89.8077 46.3096 91.9295 50.6968 92.8924 55.3651L88.1836 56.2276C87.365 52.2596 85.5615 48.5305 82.9205 45.3451C80.2795 42.1598 76.8759 39.6086 72.988 37.9003L75.0153 33.8035Z" fill="black"/>
<path d="M65.7253 61.5C65.7253 63.8335 63.8336 65.7252 61.5001 65.7252C59.1666 65.7252 57.2749 63.8335 57.2749 61.5C57.2749 59.1665 59.1666 57.2748 61.5001 57.2748C63.8336 57.2748 65.7253 59.1665 65.7253 61.5ZM59.81 61.5C59.81 62.4334 60.5667 63.19 61.5001 63.19C62.4335 63.19 63.1901 62.4334 63.1901 61.5C63.1901 60.5666 62.4335 59.8099 61.5001 59.8099C60.5667 59.8099 59.81 60.5666 59.81 61.5Z" fill="black"/>
</svg>
