<?xml version="1.0" standalone="no"?>
<!DOCTYPE svg PUBLIC "-//W3C//DTD SVG 20010904//EN"
 "http://www.w3.org/TR/2001/REC-SVG-20010904/DTD/svg10.dtd">
<svg version="1.0" xmlns="http://www.w3.org/2000/svg"
 width="1024.000000pt" height="1024.000000pt" viewBox="0 0 1024.000000 1024.000000"
 preserveAspectRatio="xMidYMid meet">
<metadata>
Created by potrace 1.11, written by Peter Selinger 2001-2013
</metadata>
<g transform="translate(0.000000,1024.000000) scale(0.100000,-0.100000)"
fill="#000000" stroke="none">
<path d="M4858 10235 c-1 -1 -50 -5 -108 -9 -58 -3 -116 -8 -130 -11 -14 -2
-50 -6 -80 -9 -83 -8 -139 -16 -350 -51 -20 -4 -162 -33 -242 -50 -86 -19
-315 -84 -451 -130 -1063 -354 -1986 -1054 -2616 -1985 -121 -180 -198 -305
-259 -424 -14 -28 -30 -58 -37 -66 -18 -23 -148 -303 -199 -428 -94 -228 -169
-457 -232 -702 -10 -40 -63 -279 -67 -305 -26 -153 -45 -283 -53 -365 -2 -30
-7 -64 -9 -75 -26 -128 -26 -847 0 -1006 2 -13 6 -49 9 -79 10 -101 39 -279
81 -505 7 -33 60 -243 95 -369 77 -283 258 -714 429 -1023 157 -282 384 -613
556 -812 212 -245 446 -478 650 -646 33 -27 62 -52 65 -55 44 -48 554 -400
579 -400 6 0 11 -4 11 -10 0 -5 4 -10 8 -10 5 0 44 -21 88 -46 131 -76 470
-239 619 -297 214 -85 531 -187 655 -212 8 -2 44 -11 80 -20 36 -9 88 -21 115
-26 28 -5 86 -16 130 -24 136 -25 189 -33 330 -50 208 -24 303 -29 590 -29
242 -1 441 7 502 18 10 2 50 7 88 10 39 4 80 8 91 10 12 2 45 7 75 11 30 4 72
10 94 15 22 5 58 11 80 14 23 4 50 8 60 10 362 76 728 188 990 301 155 67 220
98 345 162 192 97 211 108 395 222 137 85 383 259 481 340 17 14 53 44 80 66
85 70 242 214 342 314 394 394 697 812 947 1306 104 205 117 233 191 417 120
297 253 770 290 1028 3 19 7 46 9 60 11 59 22 141 31 225 3 33 7 71 10 85 25
159 25 822 -1 1005 -2 17 -6 54 -10 84 -5 47 -11 93 -30 226 -3 22 -8 51 -11
65 -2 14 -6 36 -9 50 -3 14 -9 48 -15 76 -6 28 -13 64 -16 80 -10 57 -66 271
-100 384 -19 63 -36 120 -38 125 -2 6 -6 17 -9 25 -3 8 -15 44 -27 79 -25 76
-83 226 -114 296 -12 28 -29 66 -36 85 -25 62 -170 349 -227 449 -232 405
-515 775 -839 1096 -105 104 -199 191 -274 255 -29 25 -58 50 -64 56 -49 47
-313 244 -448 333 -144 95 -514 311 -533 311 -2 0 -56 25 -121 56 -411 193
-856 334 -1299 408 -125 21 -233 37 -280 41 -22 2 -63 6 -92 10 -28 3 -76 8
-105 11 -60 5 -654 14 -660 9z"/>
</g>
</svg>
