<svg xmlns="http://www.w3.org/2000/svg" xmlns:xlink="http://www.w3.org/1999/xlink" viewBox="0 0 48 48"><defs><linearGradient id="a" x1="24" x2="24" y2="48" gradientUnits="userSpaceOnUse"><stop offset="0" stop-color="#fa9c39"/><stop offset="1" stop-color="#e26c2d"/></linearGradient></defs><title>icon-rss</title><path d="M5.0494,42.9506C1.3663,39.2675,0,33.2675,0,24S1.3663,8.7325,5.0494,5.0494,14.7325,0,24,0,39.2675,1.3663,42.9506,5.0494,48,14.7325,48,24s-1.3663,15.2675-5.0494,18.9506S33.2675,48,24,48,8.7325,46.6337,5.0494,42.9506Z" fill="url(#a)"/><path d="M9,35c0-2.2092.0308-4,4-4s4,1.7908,4,4-.0308,4-4,4S9,37.2092,9,35ZM12,9c-2.9769,0-3,1.3431-3,3s.0231,3,3,3C24.5605,15,33,23.44,33,36c0,1.6569.0231,3,3,3s3-1.3431,3-3C39,20.103,27.8975,9,12,9Zm0,10c-2.9769,0-3,1.3431-3,3s.0231,3,3,3c3.3076,0,11,1.0723,11,11,0,1.6569.0231,3,3,3s3-1.3431,3-3C29,23.4521,19.8423,19,12,19Z" fill="#fff"/></svg>