<svg xmlns="http://www.w3.org/2000/svg" viewBox="0 0 48 48">
<style type="text/css">.pill{fill:none;stroke-width:4;stroke-linecap:round;}</style>
<path stroke="#e5e5e5" fill="#fff" d="M5.0494,42.9506C1.3663,39.2675,0,33.2675,0,24S1.3663,8.7325,5.0494,5.0494,14.7325,0,24,0,39.2675,1.3663,42.9506,5.0494,48,14.7325,48,24s-1.3663,15.2675-5.0494,18.9506S33.2675,48,24,48,8.7325,46.6337,5.0494,42.9506Z"/>
<line stroke="#fab908" class="pill" x1="24" y1="10.25" x2="24" y2="12.25"/>
<line stroke="#fab908" class="pill" x1="24" y1="35.75" x2="24" y2="37.75"/>
<line stroke="#fab908" class="pill" x1="24" y1="18.25" x2="24" y2="29.75"/>
<line stroke="#ea4335" class="pill" x1="17" y1="16.5" x2="17" y2="23.5"/>
<line stroke="#ea4335" class="pill" x1="17" y1="29.5" x2="17" y2="31.5"/>
<line stroke="#34a853" class="pill" x1="31" y1="24.5" x2="31" y2="31.5"/>
<line stroke="#34a853" class="pill" x1="31" y1="18.5" x2="31" y2="16.5"/>
<line stroke="#4285f4" class="pill" x1="38" y1="23" x2="38" y2="25"/>
<line stroke="#0066d9" class="pill" x1="10" y1="23" x2="10" y2="25"/>
</svg>