<svg xmlns="http://www.w3.org/2000/svg" viewBox="0 0 48 48">
<style>.s{fill:none;stroke:#181413;stroke-linecap:round;}</style>
<path fill="#181413" d="M5.0494,42.9506C1.3663,39.2675,0,33.2675,0,24S1.3663,8.7325,5.0494,5.0494,14.7325,0,24,0,39.2675,1.3663,42.9506,5.0494,48,14.7325,48,24s-1.3663,15.2675-5.0494,18.9506S33.2675,48,24,48,8.7325,46.6337,5.0494,42.9506Z"/>
<circle fill="#1ed760" cx="24" cy="24" r="19"/>
<path stroke-width="2.37" class="s" d="M31.703,31.7874c-4.7348-2.8936-10.6469-3.5575-17.5725-1.9749"/>
<path stroke-width="2.96" class="s" d="M33.776,26.4567c-5.4852-3.3713-13.6675-4.3331-20.1383-2.3692"/>
<path stroke-width="3.55" class="s" d="M36.1461,20.3156C29.5585,16.4044,18.9289,16.04,12.65,17.9463"/>
</svg>