<svg xmlns="http://www.w3.org/2000/svg" xmlns:xlink="http://www.w3.org/1999/xlink" viewBox="0 0 48 48"><defs><linearGradient id="a" x1="24" x2="24" y2="48" gradientUnits="userSpaceOnUse"><stop offset="0" stop-color="#ff9a20"/><stop offset="1" stop-color="#ff7724"/></linearGradient><linearGradient id="b" x1="24" y1="5" x2="24" y2="43" gradientUnits="userSpaceOnUse"><stop offset="0" stop-color="#444e58"/><stop offset="1" stop-color="#22312c"/></linearGradient></defs><title>icon-overcast</title><path d="M5.0494,42.9506C1.3663,39.2675,0,33.2675,0,24S1.3663,8.7325,5.0494,5.0494,14.7325,0,24,0,39.2675,1.3663,42.9506,5.0494,48,14.7325,48,24s-1.3663,15.2675-5.0494,18.9506S33.2675,48,24,48,8.7325,46.6337,5.0494,42.9506Z" fill="url(#a)"/><circle cx="24" cy="24" r="18" fill="#fff"/><path d="M24,43A19,19,0,1,1,43,24,18.9542,18.9542,0,0,1,24,43Zm0-7.5207,1.425-1.425L24,28.5918l-1.425,5.4625ZM22.1793,35.4l-.7125,2.6918,1.6625-1.6625Zm3.6414,0-.95.95,1.6625,1.6625Zm1.3461,4.9082L24,37.1418l-3.1668,3.1664A20.4069,20.4069,0,0,0,24,40.625,13.871,13.871,0,0,0,27.1668,40.3082ZM24,7.375a16.6092,16.6092,0,0,0-5.4625,32.3L22.1,26.4543a3.0769,3.0769,0,0,1-1.2668-2.5336A3.1668,3.1668,0,1,1,25.9,26.4543L29.4625,39.675A16.6092,16.6092,0,0,0,24,7.375Z" fill="url(#b)"/><path d="M34.8457,32.2332a1.2283,1.2283,0,0,1-1.6625.2375,1.0762,1.0762,0,0,1-.2375-1.5832,12.1653,12.1653,0,0,0,0-13.775,1.0762,1.0762,0,0,1,.2375-1.5832,1.2283,1.2283,0,0,1,1.6625.2375,14.28,14.28,0,0,1,0,16.4664Zm-5.7789-3.0875a1.3441,1.3441,0,0,1,.0789-1.8207A5.1661,5.1661,0,0,0,30.3332,24a5.4346,5.4346,0,0,0-1.1875-3.325,1.4306,1.4306,0,0,1-.0789-1.8207,1.0906,1.0906,0,0,1,1.6625-.0793,7.8874,7.8874,0,0,1,0,10.45A1.1507,1.1507,0,0,1,29.0668,29.1457Zm-10.1336,0a1.1507,1.1507,0,0,1-1.6625.0793,7.8874,7.8874,0,0,1,0-10.45,1.0882,1.0882,0,0,1,1.6625.0793,1.3441,1.3441,0,0,1-.0789,1.8207A5.4346,5.4346,0,0,0,17.6668,24a5.1661,5.1661,0,0,0,1.1875,3.325A1.3406,1.3406,0,0,1,18.9332,29.1457Zm-4.1164,3.325a1.2283,1.2283,0,0,1-1.6625-.2375,14.28,14.28,0,0,1,0-16.4664,1.2283,1.2283,0,0,1,1.6625-.2375,1.0762,1.0762,0,0,1,.2375,1.5832,12.1653,12.1653,0,0,0,0,13.775A1.142,1.142,0,0,1,14.8168,32.4707Z" fill="#ff9a20"/></svg>