<svg xmlns="http://www.w3.org/2000/svg" xmlns:xlink="http://www.w3.org/1999/xlink" viewBox="0 0 48 48"><defs><linearGradient id="a" x1="24" x2="24" y2="48" gradientUnits="userSpaceOnUse"><stop offset="0" stop-color="#f452ff"/><stop offset="1" stop-color="#832bc1"/></linearGradient></defs><title>icon-applepodcasts</title><path d="M5.0494,42.9506C1.3663,39.2675,0,33.2675,0,24S1.3663,8.7325,5.0494,5.0494,14.7325,0,24,0,39.2675,1.3663,42.9506,5.0494,48,14.7325,48,24s-1.3663,15.2675-5.0494,18.9506S33.2675,48,24,48,8.7325,46.6337,5.0494,42.9506Z" fill="url(#a)"/><path d="M27.4968,27.7337a4.8446,4.8446,0,0,0-3.5037-1.2565,4.836,4.836,0,0,0-3.5037,1.2565,2.2253,2.2253,0,0,0-.6412,1.3924,18.0637,18.0637,0,0,0,.0778,3.6569c.1252,1.481.3648,3.4563.6778,5.47a20.953,20.953,0,0,0,.5678,2.7589,2.7358,2.7358,0,0,0,2.8215,1.6817,2.7348,2.7348,0,0,0,2.8215-1.6817,20.7911,20.7911,0,0,0,.5678-2.7589c.313-2.012.5527-3.9873.6779-5.47a18.244,18.244,0,0,0,.08-3.6569A2.2156,2.2156,0,0,0,27.4968,27.7337Zm-7.4543-6.8153A3.9571,3.9571,0,1,0,24,16.9613,3.9566,3.9566,0,0,0,20.0425,20.9184ZM23.95,5.3061a16.9989,16.9989,0,0,0-5.5761,33.04.2289.2289,0,0,0,.3022-.2482c-.0885-.5807-.17-1.1658-.2461-1.7422a.5811.5811,0,0,0-.3432-.46,14.8254,14.8254,0,1,1,11.828,0,.581.581,0,0,0-.3433.46c-.0756.5743-.1576,1.1593-.2461,1.74a.2279.2279,0,0,0,.3022.2483A16.998,16.998,0,0,0,23.95,5.3061Zm-.3087,7.8a9.2087,9.2087,0,0,1,6.6642,15.9211.7109.7109,0,0,0-.2224.5526,16.7492,16.7492,0,0,1-.0194,1.9408.2245.2245,0,0,0,.35.1986,11.387,11.387,0,1,0-12.8188.0021.2231.2231,0,0,0,.3475-.1986,15.9,15.9,0,0,1-.0194-1.9429.7037.7037,0,0,0-.2223-.5526,9.2092,9.2092,0,0,1,5.9409-15.9211Z" fill="#fff"/></svg>