<svg viewBox="0 0 48 48" xmlns="http://www.w3.org/2000/svg"><path d="m5.0494 42.9506c-3.6831-3.6831-5.0494-9.6831-5.0494-18.9506s1.3663-15.2675 5.0494-18.9506 9.6831-5.0494 18.9506-5.0494 15.2675 1.3663 18.9506 5.0494 5.0494 9.6831 5.0494 18.9506-1.3663 15.2675-5.0494 18.9506-9.6831 5.0494-18.9506 5.0494-15.2675-1.3663-18.9506-5.0494z" fill="#fff" stroke="#e5e5e5"/><g fill="none" stroke-linecap="round" stroke-width="4"><path d="m24 10.25v2" stroke="#fab908"/><path d="m24 35.75v2" stroke="#fab908"/><path d="m24 18.25v11.5" stroke="#fab908"/><path d="m17 16.5v7" stroke="#ea4335"/><path d="m17 29.5v2" stroke="#ea4335"/><path d="m31 24.5v7" stroke="#34a853"/><path d="m31 18.5v-2" stroke="#34a853"/><path d="m38 23v2" stroke="#4285f4"/><path d="m10 23v2" stroke="#0066d9"/></g></svg>